<svg id="Capa_1" data-name="Capa 1" xmlns="http://www.w3.org/2000/svg" viewBox="0 0 216.54 54.29"><defs><style>.cls-1,.cls-2,.cls-4{stroke:#000;stroke-miterlimit:10;}.cls-2,.cls-3,.cls-4{fill:#fff;}.cls-4{stroke-width:10px;}</style></defs><path class="cls-1" d="M142.94,5.28v43.8a4.71,4.71,0,0,0,4.71,4.71h27.82a4.71,4.71,0,0,0,4.71-4.71V13.55a4.7,4.7,0,0,0-1.4-3.35l-8.37-8.27A4.71,4.71,0,0,0,167.1.57H147.65A4.71,4.71,0,0,0,142.94,5.28Z" transform="translate(-0.01 0)"/><path class="cls-2" d="M168.6,4l8.14,8a2.33,2.33,0,0,1,.7,1.67V45.64A2.35,2.35,0,0,1,175.09,48h-7.9a2.35,2.35,0,0,1-2.35-2.36V16.55a2.36,2.36,0,0,0-2.36-2.35h0a2.35,2.35,0,0,0-2.35,2.35V45.64A2.36,2.36,0,0,1,157.77,48h-7.89a2.36,2.36,0,0,1-2.36-2.36v-40a2.36,2.36,0,0,1,2.36-2.36H167A2.32,2.32,0,0,1,168.6,4Z" transform="translate(-0.01 0)"/><path class="cls-1" d="M39.19.54H60.68a3.69,3.69,0,0,1,2.61,1.08l8,8a3.63,3.63,0,0,1,1.07,2.58V50.08a3.67,3.67,0,0,1-3.67,3.67H45.29a3.69,3.69,0,0,1-2.55-1l-6-5.78a3.68,3.68,0,0,1-1.12-2.63L35.52,4.22A3.67,3.67,0,0,1,39.19.54Z" transform="translate(-0.01 0)"/><path class="cls-2" d="M39.66,7.12v29.8a3.83,3.83,0,0,0,1.13,2.73l7.26,7.2A3.85,3.85,0,0,0,50.75,48h15a3.85,3.85,0,0,0,3.85-3.84V14.43a3.85,3.85,0,0,0-1.13-2.72L61.16,4.4a3.86,3.86,0,0,0-2.73-1.13H43.5A3.85,3.85,0,0,0,39.66,7.12Z" transform="translate(-0.01 0)"/><rect class="cls-1" x="52.19" y="14.16" width="4.71" height="22.92" rx="2.36"/><path class="cls-1" d="M212.38.54H190.89a3.69,3.69,0,0,0-2.61,1.08l-8,8a3.66,3.66,0,0,0-1.06,2.58V50.08a3.67,3.67,0,0,0,3.67,3.67h23.36a3.67,3.67,0,0,0,2.55-1l6-5.78a3.64,3.64,0,0,0,1.12-2.63l.11-40.09A3.67,3.67,0,0,0,212.38.54Z" transform="translate(-0.01 0)"/><path class="cls-2" d="M211.92,7.12v29.8a3.84,3.84,0,0,1-1.14,2.73l-7.25,7.2A3.87,3.87,0,0,1,200.82,48h-15A3.84,3.84,0,0,1,182,44.12V14.43a3.84,3.84,0,0,1,1.12-2.72l7.3-7.31a3.85,3.85,0,0,1,2.72-1.13h14.94A3.85,3.85,0,0,1,211.92,7.12Z" transform="translate(-0.01 0)"/><rect class="cls-1" x="194.65" y="14.16" width="4.71" height="22.92" rx="2.36"/><path d="M126,8.86V45c0,10.28,3.9,8.79,8.71,8.79h0c4.8,0,8.7,1.49,8.7-8.79V8.86c0-10.28-3.9-8.78-8.7-8.78h0C129.93.08,126-1.42,126,8.86Z" transform="translate(-0.01 0)"/><path class="cls-3" d="M128.34,25.83v19.4A2.7,2.7,0,0,0,131,48h7.17a2.7,2.7,0,0,0,2.69-2.72V17.85a2.7,2.7,0,0,0-2.69-2.71h0C132.75,15.14,128.34,19.92,128.34,25.83Z" transform="translate(-0.01 0)"/><path class="cls-3" d="M128.34,6.54V8.91a3.68,3.68,0,0,0,3.66,3.7h2.87a6,6,0,0,0,6-6.07h0a3.68,3.68,0,0,0-3.67-3.7H132A3.68,3.68,0,0,0,128.34,6.54Z" transform="translate(-0.01 0)"/><path class="cls-4" d="M114.42,16" transform="translate(-0.01 0)"/><path class="cls-1" d="M127,5.25v43.8a4.72,4.72,0,0,1-4.72,4.71H94.44a4.73,4.73,0,0,1-4.72-4.71V13.52a4.71,4.71,0,0,1,1.41-3.35L99.51,1.9A4.71,4.71,0,0,1,102.82.54h19.49A4.72,4.72,0,0,1,127,5.25Z" transform="translate(-0.01 0)"/><path class="cls-1" d="M70.85,5.25v43.8a4.71,4.71,0,0,0,4.71,4.71h27.82a4.71,4.71,0,0,0,4.71-4.71V13.52a4.7,4.7,0,0,0-1.4-3.35L98.33,1.9A4.75,4.75,0,0,0,95,.54H75.56A4.71,4.71,0,0,0,70.85,5.25Z" transform="translate(-0.01 0)"/><path class="cls-2" d="M96.51,4,104.65,12a2.33,2.33,0,0,1,.7,1.67V45.61A2.36,2.36,0,0,1,103,48H95.1a2.36,2.36,0,0,1-2.35-2.36V16.52a2.36,2.36,0,0,0-2.36-2.35h0A2.35,2.35,0,0,0,88,16.52V45.61A2.36,2.36,0,0,1,85.68,48H77.79a2.36,2.36,0,0,1-2.36-2.36v-40a2.36,2.36,0,0,1,2.36-2.35H94.86A2.32,2.32,0,0,1,96.51,4Z" transform="translate(-0.01 0)"/><path class="cls-2" d="M101.32,4,93.17,12a2.33,2.33,0,0,0-.7,1.67V45.61A2.36,2.36,0,0,0,94.83,48h7.9a2.36,2.36,0,0,0,2.36-2.36V16.52a2.36,2.36,0,0,1,2.36-2.35h0a2.35,2.35,0,0,1,2.36,2.35V45.61A2.36,2.36,0,0,0,112.17,48h7.91a2.36,2.36,0,0,0,2.36-2.36v-40a2.36,2.36,0,0,0-2.36-2.35H103A2.35,2.35,0,0,0,101.32,4Z" transform="translate(-0.01 0)"/><path class="cls-1" d="M37.81,5.25v43.8a4.71,4.71,0,0,1-4.72,4.71H5.23A4.71,4.71,0,0,1,.51,49.05V13.52a4.7,4.7,0,0,1,1.4-3.35L10.29,1.9A4.73,4.73,0,0,1,13.61.54H33.09A4.71,4.71,0,0,1,37.81,5.25Z" transform="translate(-0.01 0)"/><path class="cls-2" d="M12.11,4,4,12a2.33,2.33,0,0,0-.7,1.67V45.61A2.36,2.36,0,0,0,5.61,48h7.91a2.36,2.36,0,0,0,2.36-2.36V16.52a2.35,2.35,0,0,1,2.36-2.35h0a2.36,2.36,0,0,1,2.36,2.35V45.61A2.36,2.36,0,0,0,23,48h7.9a2.36,2.36,0,0,0,2.36-2.36v-40a2.35,2.35,0,0,0-2.36-2.35H13.76A2.32,2.32,0,0,0,12.11,4Z" transform="translate(-0.01 0)"/></svg>